<?xml version="1.0" standalone="no"?><!DOCTYPE svg PUBLIC "-//W3C//DTD SVG 1.1//EN" "http://www.w3.org/Graphics/SVG/1.1/DTD/svg11.dtd"><svg t="1620531603217" class="icon" viewBox="0 0 1024 1024" version="1.1" xmlns="http://www.w3.org/2000/svg" p-id="1744" xmlns:xlink="http://www.w3.org/1999/xlink" width="16" height="16"><defs><style type="text/css"></style></defs><path d="M688 305.28h-352a29.44 29.44 0 1 0 0 58.56h352a29.44 29.44 0 1 0 0-58.56zM688 453.76h-352a29.44 29.44 0 1 0 0 58.56h352a29.44 29.44 0 1 0 0-58.56zM512 602.24h-176a29.44 29.44 0 0 0 0 58.88H512a29.44 29.44 0 0 0 0-58.88z" p-id="1745"></path><path d="M761.28 130.56H262.72a73.6 73.6 0 0 0-73.6 73.28v616.32a73.6 73.6 0 0 0 73.6 73.28h498.56a73.6 73.6 0 0 0 73.6-73.28V203.84a73.6 73.6 0 0 0-73.6-73.28z m14.72 689.6a15.04 15.04 0 0 1-14.72 14.72H262.72a15.04 15.04 0 0 1-14.72-14.72V203.84a15.04 15.04 0 0 1 14.72-14.72h498.56a15.04 15.04 0 0 1 14.72 14.72z" p-id="1746"></path></svg>